<svg xmlns="http://www.w3.org/2000/svg" viewBox="0 0 500 368.76"><title>user_task</title><g id="Background_Complete" data-name="Background Complete"><path d="M375.29,300.83a.67.67,0,0,1-.24-.51c-.17-3.63-2.35-39.19-24.13-63.56-18.43-20.61.47-5.9,8.67.73a.76.76,0,0,0,1.13-1c-5.78-9.77-20.28-35.6-15.25-40.63,4.75-4.75,14.57,18.84,18.95,30.28a.76.76,0,0,0,1.47-.35c-1.27-12.11-3.11-37.44,3.72-36.55s4.87,34.35,3.53,50.73a.76.76,0,0,0,1.48.28c3.05-10.08,8.85-25,15.67-21,10.08,5.84-14.84,26.35-13.29,48.61C378.53,289.66,378.94,304,375.29,300.83Z" transform="translate(0 -54.95)" style="fill:#f5f5f5"/><path d="M388.36,304.12c.08,0,.18-.33.14-.58-4.76-30.14,27.16-52.05,49.57-62.9,5-2.42,10.17-4.92,14.43-8.62-8.31.55-16.6,4-24.56,6.7-1.05.36-1.6-.73-.7-1.36,10.17-7.06,38.48-33,30.32-40.6-3.68-3.41-24,23.69-28.79,28.55-.78.79-2,.09-1.47-.82,6.31-10.56,8.39-43.86,2-43.46-2.71.17-3.73,15.78-5.15,22.13-2.67,11.89-7.66,23.06-12.87,34-.46,1-2.07.8-1.83-.17,1.81-7.28,2.49-28.63-6.47-27.09-6.5,1.12-5.46,13.69-5.52,20.42-.11,12-1.11,24.22-6.26,34.87C387.71,272.45,383.34,304.72,388.36,304.12Z" transform="translate(0 -54.95)" style="fill:#f5f5f5"/><path d="M381.13,307.47a.53.53,0,0,0,.17-.35c.11-2.43,1.57-26.31,16.19-42.66,12.37-13.84-.32-4-5.82.48a.51.51,0,0,1-.76-.65c3.88-6.56,13.62-23.9,10.24-27.28-3.19-3.19-9.78,12.65-12.72,20.33a.51.51,0,0,1-1-.23c.85-8.13,2.09-25.14-2.49-24.54s-3.27,23.06-2.38,34.05a.51.51,0,0,1-1,.19c-2.05-6.76-5.94-16.76-10.51-14.11-6.77,3.92,10,17.68,8.91,32.62C379,300,378.68,309.58,381.13,307.47Z" transform="translate(0 -54.95)" style="fill:#e6e6e6"/><path d="M397.61,374.58c7.53-28.07,12.49-67.6,12.49-77.34H353.94c0,9.74,5,49.27,12.49,77.34a11.81,11.81,0,0,0,11.42,8.74h8.35A11.81,11.81,0,0,0,397.61,374.58Z" transform="translate(0 -54.95)" style="fill:#e6e6e6"/><path d="M408.48,315.82c.42-3.41.76-6.52,1-9.25h-55c.26,2.73.6,5.84,1,9.25Z" transform="translate(0 -54.95)" style="fill:#f5f5f5"/><rect x="79.44" y="135.89" width="47.75" height="47.75" style="fill:#f5f5f5"/><rect x="84.05" y="140.5" width="38.54" height="38.54" rx="4.6" ry="4.6" style="fill:#ebebeb"/><path d="M95.37,195.45a2.9,2.9,0,0,0,2.83,2.3h10.23a2.92,2.92,0,0,0,2.84-2.3Z" transform="translate(0 -54.95)" style="fill:#e0e0e0"/><rect x="79.44" y="183.64" width="47.75" height="47.75" style="fill:#f0f0f0"/><rect x="84.05" y="188.25" width="38.54" height="38.54" rx="4.6" ry="4.6" style="fill:#fafafa"/><path d="M95.37,243.21a2.9,2.9,0,0,0,2.83,2.3h10.23a2.92,2.92,0,0,0,2.84-2.3Z" transform="translate(0 -54.95)" style="fill:#e0e0e0"/><rect x="79.44" y="231.4" width="47.75" height="47.75" style="fill:#f5f5f5"/><rect x="84.05" y="236.01" width="38.54" height="38.54" rx="4.6" ry="4.6" style="fill:#ebebeb"/><path d="M95.37,291a2.9,2.9,0,0,0,2.83,2.3h10.23a2.92,2.92,0,0,0,2.84-2.3Z" transform="translate(0 -54.95)" style="fill:#e0e0e0"/><rect x="79.44" y="279.15" width="47.75" height="47.75" style="fill:#f0f0f0"/><rect x="84.05" y="283.76" width="38.54" height="38.54" rx="4.6" ry="4.6" style="fill:#fafafa"/><path d="M95.37,338.71A2.9,2.9,0,0,0,98.2,341h10.23a2.92,2.92,0,0,0,2.84-2.31Z" transform="translate(0 -54.95)" style="fill:#e0e0e0"/><rect x="127.2" y="135.89" width="5.85" height="191.02" style="fill:#e6e6e6"/><rect x="74.59" y="50.07" width="37.58" height="37.58" style="fill:#f0f0f0"/><rect x="112.17" y="105.02" width="1.78" height="37.58" transform="translate(226.11 192.67) rotate(180)" style="fill:#e6e6e6"/><rect x="77.99" y="53.47" width="30.77" height="30.77" style="fill:#e6e6e6"/><rect x="81.01" y="56.5" width="24.72" height="24.72" style="fill:#fafafa"/><rect x="120.64" y="73.06" width="24" height="39.82" style="fill:#f0f0f0"/><rect x="144.65" y="128.01" width="1.14" height="39.82" transform="translate(290.43 240.9) rotate(180)" style="fill:#e6e6e6"/><rect x="122.82" y="76.66" width="19.66" height="32.61" style="fill:#fafafa"/><rect x="124.75" y="79.87" width="15.79" height="26.2" style="fill:#f5f5f5"/><ellipse cx="140.54" cy="54.94" rx="16.85" ry="11.21" style="fill:#e0e0e0"/><ellipse cx="139.39" cy="54.94" rx="16.85" ry="11.21" style="fill:#ebebeb"/><ellipse cx="139.39" cy="54.94" rx="13.17" ry="8.76" style="fill:#fafafa"/><rect x="416.78" y="343.54" width="33.12" height="0.25" style="fill:#ebebeb"/><rect x="322.53" y="346.26" width="8.69" height="0.25" style="fill:#ebebeb"/><rect x="396.59" y="334.26" width="19.19" height="0.25" style="fill:#ebebeb"/><rect x="52.46" y="335.94" width="43.19" height="0.25" style="fill:#ebebeb"/><rect x="104.56" y="335.94" width="6.33" height="0.25" style="fill:#ebebeb"/><rect x="131.47" y="340.16" width="93.68" height="0.25" style="fill:#ebebeb"/><path d="M237,337.8H43.92a5.71,5.71,0,0,1-5.71-5.71V60.66A5.71,5.71,0,0,1,43.92,55H237a5.71,5.71,0,0,1,5.71,5.71V332.09A5.71,5.71,0,0,1,237,337.8ZM43.92,55.2a5.47,5.47,0,0,0-5.46,5.46V332.09a5.47,5.47,0,0,0,5.46,5.46H237a5.47,5.47,0,0,0,5.46-5.46V60.66A5.47,5.47,0,0,0,237,55.2Z" transform="translate(0 -54.95)" style="fill:#ebebeb"/><path d="M453.31,337.8H260.21a5.72,5.72,0,0,1-5.71-5.71V60.66A5.72,5.72,0,0,1,260.21,55h193.1A5.71,5.71,0,0,1,459,60.66V332.09A5.71,5.71,0,0,1,453.31,337.8ZM260.21,55.2a5.47,5.47,0,0,0-5.46,5.46V332.09a5.47,5.47,0,0,0,5.46,5.46h193.1a5.47,5.47,0,0,0,5.46-5.46V60.66a5.47,5.47,0,0,0-5.46-5.46Z" transform="translate(0 -54.95)" style="fill:#ebebeb"/><rect y="327.45" width="500" height="0.25" style="fill:#ebebeb"/></g><g id="Shadow"><ellipse id="_Path_" data-name="&lt;Path&gt;" cx="245.18" cy="357.44" rx="193.89" ry="11.32" style="fill:#f5f5f5"/></g><g id="Mind_map" data-name="Mind map"><path d="M177.38,106l72.74,42a.75.75,0,0,0,.76-1.3l-72.75-42a.75.75,0,0,0-.75,1.3Z" transform="translate(0 -54.95)" style="fill:#263238"/><path d="M341.69,99.88,299.93,172.2l-6,10.45a.75.75,0,0,0,1.29.76L337,111.08l6-10.45a.75.75,0,0,0-1.29-.75Z" transform="translate(0 -54.95)" style="fill:#263238"/><path d="M293.9,100.63l17.26,29.91a.75.75,0,0,0,1.3-.76q-8.64-15-17.27-29.9a.75.75,0,0,0-1.29.75Z" transform="translate(0 -54.95)" style="fill:#263238"/><path d="M213.38,148.72V249a.75.75,0,0,0,1.5,0V148.72a.75.75,0,0,0-1.5,0Z" transform="translate(0 -54.95)" style="fill:#263238"/><path d="M213.38,84.37v42.48a.75.75,0,0,0,1.5,0V84.37a.75.75,0,0,0-1.5,0Z" transform="translate(0 -54.95)" style="fill:#263238"/><path d="M174.39,181.53q15.15,8.73,30.28,17.48a.75.75,0,0,0,.76-1.3l-30.28-17.48a.75.75,0,0,0-.76,1.3Z" transform="translate(0 -54.95)" style="fill:#263238"/><path d="M175.15,227l30.28-17.48a.75.75,0,0,0-.76-1.3q-15.13,8.75-30.28,17.48a.75.75,0,0,0,.76,1.3Z" transform="translate(0 -54.95)" style="fill:#263238"/><path d="M230.88,204.57H331.6a.75.75,0,0,0,0-1.5H230.88a.75.75,0,0,0,0,1.5Z" transform="translate(0 -54.95)" style="fill:#263238"/><path d="M352.46,217.58v26.3a.75.75,0,0,0,1.5,0v-26.3a.75.75,0,0,0-1.5,0Z" transform="translate(0 -54.95)" style="fill:#263238"/><path d="M368.91,204.57h19.55a.75.75,0,0,0,0-1.5H368.91a.75.75,0,0,0,0,1.5Z" transform="translate(0 -54.95)" style="fill:#263238"/><path d="M380.42,155.2Q369.55,174,358.69,192.82a.75.75,0,0,0,1.3.76L381.71,156a.75.75,0,0,0-1.29-.76Z" transform="translate(0 -54.95)" style="fill:#263238"/><path d="M236,207.85l-4.56-4.56v1.06l4.56-4.56a.75.75,0,0,0-1.06-1.06l-4.56,4.56a.75.75,0,0,0,0,1.06l4.56,4.56c.68.69,1.74-.37,1.06-1.06Z" transform="translate(0 -54.95)" style="fill:#263238"/><path d="M326.51,199.79l4.56,4.56v-1.06l-4.56,4.56a.75.75,0,0,0,1.06,1.06l4.56-4.56a.75.75,0,0,0,0-1.06l-4.56-4.56c-.69-.68-1.75.38-1.06,1.06Z" transform="translate(0 -54.95)" style="fill:#263238"/><path d="M302.73,160.83l6.23-1.67-.93-.53q.84,3.12,1.67,6.23a.75.75,0,0,0,1.45-.39c-.56-2.08-1.11-4.16-1.67-6.24a.76.76,0,0,0-.92-.52l-6.23,1.67a.75.75,0,0,0,.4,1.45Z" transform="translate(0 -54.95)" style="fill:#263238"/><circle cx="282.21" cy="148.87" r="33.5" style="fill:#407bff"/><circle cx="282.21" cy="148.87" r="33.5" style="fill:#fff;opacity:0.7000000000000001"/><circle cx="282.21" cy="203.82" r="28.22" transform="translate(19 376.7) rotate(-76.72)" style="fill:#407bff"/><circle cx="282.21" cy="203.82" r="28.22" transform="translate(19 376.7) rotate(-76.72)" style="fill:#fff;opacity:0.8"/><circle cx="282.21" cy="148.87" r="21.24" style="fill:#fff;opacity:0.9"/><circle cx="294.54" cy="100.9" r="18.37" transform="translate(88.61 279.46) rotate(-67.5)" style="fill:#407bff"/><circle cx="294.54" cy="100.9" r="18.37" transform="translate(88.61 279.46) rotate(-67.5)" style="fill:#fff;opacity:0.7000000000000001"/><circle cx="317.89" cy="141.64" r="19.06" transform="translate(-24.04 21.87) rotate(-13.28)" style="fill:#407bff"/><circle cx="317.89" cy="141.64" r="19.06" transform="translate(-24.04 21.87) rotate(-13.28)" style="fill:#fff;opacity:0.7000000000000001"/><circle cx="214.13" cy="148.87" r="16.75" style="fill:#407bff"/><circle cx="214.13" cy="148.87" r="16.75" style="fill:#fff;opacity:0.7000000000000001"/><circle cx="214.13" cy="71.9" r="21.87" style="fill:#407bff"/><circle cx="214.13" cy="71.9" r="21.87" style="fill:#fff;opacity:0.7000000000000001"/><circle cx="353.21" cy="196.06" r="15.7" style="fill:#407bff"/><circle cx="353.21" cy="196.06" r="15.7" style="fill:#fff;opacity:0.7000000000000001"/><circle cx="397.31" cy="148.87" r="13.76" style="fill:#407bff"/><circle cx="397.31" cy="148.87" r="13.76" style="fill:#fff;opacity:0.7000000000000001"/><circle cx="380.46" cy="155.58" r="21.12" transform="translate(-25.57 36.62) rotate(-13.28)" style="fill:#407bff"/><circle cx="380.46" cy="155.58" r="21.12" transform="translate(-25.57 36.62) rotate(-13.28)" style="fill:#fff;opacity:0.7000000000000001"/><circle cx="214.13" cy="84.37" r="13.65" transform="translate(3.06 121.17) rotate(-45)" style="fill:#407bff"/><circle cx="214.13" cy="84.37" r="13.65" transform="translate(3.06 121.17) rotate(-45)" style="fill:#fff;opacity:0.7000000000000001"/><circle cx="214.13" cy="194.06" r="16.75" style="fill:#407bff"/><circle cx="214.13" cy="194.06" r="16.75" style="fill:#fff;opacity:0.7000000000000001"/><circle cx="174.77" cy="171.37" r="17.48" style="fill:#407bff"/><circle cx="174.77" cy="171.37" r="17.48" style="fill:#fff;opacity:0.7000000000000001"/><circle cx="174.77" cy="180.88" r="19.62" transform="translate(-26.72 -24.62) rotate(-9.22)" style="fill:#407bff"/><circle cx="174.77" cy="180.88" r="19.62" transform="translate(-26.72 -24.62) rotate(-9.22)" style="fill:#fff;opacity:0.7000000000000001"/><circle cx="177.76" cy="105.37" r="13.63" transform="translate(-14.58 -25.12) rotate(-9.22)" style="fill:#407bff"/><circle cx="177.76" cy="105.37" r="13.63" transform="translate(-14.58 -25.12) rotate(-9.22)" style="fill:#fff;opacity:0.7000000000000001"/><circle cx="250.5" cy="147.37" r="13.63" transform="translate(-20.37 -12.92) rotate(-9.22)" style="fill:#407bff"/><circle cx="250.5" cy="147.37" r="13.63" transform="translate(-20.37 -12.92) rotate(-9.22)" style="fill:#fff;opacity:0.7000000000000001"/><circle cx="342.33" cy="45.3" r="19.64" style="fill:#407bff"/><circle cx="342.33" cy="45.3" r="19.64" style="fill:#fff;opacity:0.7000000000000001"/><circle cx="353.21" cy="148.87" r="21.61" style="fill:#407bff"/><circle cx="353.21" cy="148.87" r="21.61" style="fill:#fff;opacity:0.7000000000000001"/><circle cx="214.13" cy="71.9" r="19.03" style="fill:#407bff"/><circle cx="174.77" cy="125.93" r="15.14" style="fill:#407bff"/><circle cx="174.77" cy="226.32" r="14.4" transform="translate(-73.31 29.16) rotate(-22.5)" style="fill:#407bff"/><circle cx="214.13" cy="203.82" r="12.56" transform="translate(-81.4 156.16) rotate(-45)" style="fill:#407bff"/><circle cx="214.13" cy="249.04" r="13.42" transform="translate(-113.38 169.4) rotate(-45)" style="fill:#407bff"/><circle cx="177.76" cy="105.37" r="8.55" transform="translate(45.27 209) rotate(-80.78)" style="fill:#407bff"/><circle cx="214.13" cy="84.37" r="11.49" transform="translate(82.82 218.43) rotate(-76.72)" style="fill:#407bff"/><circle cx="250.5" cy="92.42" r="9.61" style="fill:#407bff"/><circle cx="294.54" cy="45.95" r="14.31" style="fill:#407bff"/><circle cx="342.33" cy="45.3" r="17.13" style="fill:#407bff"/><circle cx="353.21" cy="148.87" r="16.75" style="fill:#407bff"/><circle cx="317.89" cy="86.69" r="15.34" style="fill:#407bff"/><circle cx="380.46" cy="155.58" r="18.35" transform="translate(1.42 259.64) rotate(-45)" style="fill:#407bff"/><circle cx="353.21" cy="196.06" r="9.96" style="fill:#407bff"/><circle cx="214.13" cy="71.9" r="19.03" style="fill:#fff;opacity:0.5"/><circle cx="174.77" cy="125.93" r="15.14" style="fill:#fff;opacity:0.4"/><circle cx="174.77" cy="226.32" r="14.4" transform="translate(-73.31 29.16) rotate(-22.5)" style="fill:#fff;opacity:0.9"/><circle cx="214.13" cy="249.04" r="13.42" transform="translate(-113.38 169.4) rotate(-45)" style="fill:#fff;opacity:0.4"/><circle cx="214.13" cy="84.37" r="11.49" transform="translate(82.82 218.43) rotate(-76.72)" style="fill:#fff;opacity:0.2"/><circle cx="250.5" cy="92.42" r="9.61" style="fill:#fff;opacity:0.2"/><circle cx="294.54" cy="45.95" r="14.31" style="fill:#fff;opacity:0.9"/><circle cx="342.33" cy="45.3" r="17.13" style="fill:#fff;opacity:0.2"/><circle cx="353.21" cy="148.87" r="16.75" style="fill:#fff;opacity:0.4"/><circle cx="380.46" cy="155.58" r="18.35" transform="translate(1.42 259.64) rotate(-45)" style="fill:#fff;opacity:0.2"/><circle cx="353.21" cy="196.06" r="9.96" style="fill:#fff;opacity:0.2"/><circle cx="397.31" cy="148.87" r="9.87" style="fill:#407bff;opacity:0.8"/><polygon points="214.13 59.9 216.55 62.3 219.85 61.43 220.75 64.72 224.05 65.63 223.18 68.93 225.58 71.35 223.18 73.78 224.05 77.08 220.75 77.98 219.85 81.27 216.55 80.4 214.13 82.81 211.7 80.4 208.4 81.27 207.5 77.98 204.21 77.08 205.08 73.78 202.68 71.35 205.08 68.93 204.21 65.63 207.5 64.72 208.4 61.43 211.7 62.3 214.13 59.9" style="fill:#407bff"/><polygon points="214.38 142.44 216.79 145.57 220.51 146.9 218.28 150.16 218.17 154.11 214.38 152.99 210.59 154.11 210.47 150.16 208.25 146.9 211.97 145.57 214.38 142.44" style="fill:#fff"/><polygon points="177.75 46.42 179.25 48.35 181.55 49.17 180.17 51.19 180.1 53.63 177.75 52.94 175.41 53.63 175.34 51.19 173.97 49.17 176.26 48.35 177.75 46.42" style="fill:#fff"/><polygon points="313.98 78.28 318.83 84.66 307.6 83.14 313.98 78.28" style="fill:#fff"/><rect x="311.59" y="144.23" width="7.42" height="7.42" transform="matrix(0.99, 0.13, -0.13, 0.99, 22.63, -95.81)" style="fill:#fff"/><path d="M330.16,141.62a3.83,3.83,0,1,1-3.29-4.31A3.82,3.82,0,0,1,330.16,141.62Z" transform="translate(0 -54.95)" style="fill:#fff"/><polygon points="336.51 44.59 341.56 48.34 332.76 49.64 336.51 44.59" style="fill:#fff"/><rect x="337.79" y="107.43" width="5.82" height="5.82" transform="translate(-12.47 -3.99) rotate(-8.4)" style="fill:#fff"/><rect x="328.89" y="95.46" width="4.24" height="4.24" transform="translate(-10.7 -5.55) rotate(-8.4)" style="fill:#fff"/><rect x="351.6" y="95.74" width="4.24" height="4.24" transform="translate(-10.5 -2.22) rotate(-8.4)" style="fill:#fff"/><path d="M350.53,102.34a3,3,0,1,1-3.42-2.54A3,3,0,0,1,350.53,102.34Z" transform="translate(0 -54.95)" style="fill:#fff"/><polygon points="349.8 35.74 346.05 40.79 344.75 31.99 349.8 35.74" style="fill:#fff"/><rect x="335.75" y="89.17" width="5.82" height="5.82" transform="translate(380.27 -311.35) rotate(81.6)" style="fill:#fff"/><polygon points="349.52 144.25 351.57 149.09 356.8 149.54 352.83 152.98 354.02 158.1 349.52 155.38 345.02 158.1 346.21 152.98 342.24 149.54 347.48 149.09 349.52 144.25" style="fill:#407bff"/><polygon points="358.26 136.43 359.55 139.49 362.85 139.77 360.34 141.94 361.09 145.16 358.26 143.45 355.42 145.16 356.17 141.94 353.67 139.77 356.97 139.49 358.26 136.43" style="fill:#407bff"/><polygon points="361.15 151.01 361.96 152.94 364.04 153.12 362.46 154.49 362.94 156.52 361.15 155.44 359.36 156.52 359.83 154.49 358.26 153.12 360.34 152.94 361.15 151.01" style="fill:#407bff"/><path d="M374.77,156.61a2.21,2.21,0,1,1-2.21-2.21A2.21,2.21,0,0,1,374.77,156.61Z" transform="translate(0 -54.95)" style="fill:#fff"/><path d="M381.72,156.61a2.21,2.21,0,1,1-2.21-2.21A2.21,2.21,0,0,1,381.72,156.61Z" transform="translate(0 -54.95)" style="fill:#fff"/><path d="M388.66,156.61a2.21,2.21,0,1,1-2.21-2.21A2.21,2.21,0,0,1,388.66,156.61Z" transform="translate(0 -54.95)" style="fill:#fff"/><path d="M170,226.38a2.21,2.21,0,1,1-2.21-2.21A2.21,2.21,0,0,1,170,226.38Z" transform="translate(0 -54.95)" style="fill:#407bff"/><circle cx="174.77" cy="171.43" r="2.21" style="fill:#407bff"/><path d="M183.93,226.38a2.21,2.21,0,1,1-2.21-2.21A2.21,2.21,0,0,1,183.93,226.38Z" transform="translate(0 -54.95)" style="fill:#407bff"/><circle cx="286.84" cy="45.95" r="2.21" style="fill:#407bff"/><circle cx="293.79" cy="45.95" r="2.21" style="fill:#407bff"/><path d="M303,100.9a2.21,2.21,0,1,1-2.21-2.21A2.21,2.21,0,0,1,303,100.9Z" transform="translate(0 -54.95)" style="fill:#407bff"/><rect x="393.64" y="200.12" width="7.1" height="7.1" transform="translate(120.54 -201.58) rotate(24.55)" style="fill:#fff"/><rect x="246.95" y="143.82" width="7.1" height="7.1" transform="translate(301.07 -193.79) rotate(69.55)" style="fill:#fff"/><polygon points="348.21 196.98 355.36 191.31 357.18 200.25 348.21 196.98" style="fill:#fff"/><polygon points="207.05 189.05 212.49 184.73 213.88 191.54 207.05 189.05" style="fill:#fff"/><polygon points="218.09 193.79 218.89 186.89 224.68 190.72 218.09 193.79" style="fill:#fff"/><polygon points="214.8 202.7 215.59 195.8 221.38 199.63 214.8 202.7" style="fill:#fff"/><polygon points="205.48 198.19 211.19 194.24 212.13 201.12 205.48 198.19" style="fill:#fff"/><polygon points="208.89 29.89 216.04 24.22 217.86 33.16 208.89 29.89" style="fill:#fff"/><path d="M173.09,181.83l-4.83-5a2.21,2.21,0,1,0-3.17,3.07l4.83,5a2.21,2.21,0,1,0,3.17-3.08Z" transform="translate(0 -54.95)" style="fill:#407bff"/><path d="M180,173.15l-5.6.21a1.78,1.78,0,0,0,.14,3.56l5.59-.21a1.78,1.78,0,0,0-.13-3.56Z" transform="translate(0 -54.95)" style="fill:#407bff"/><path d="M181,184.55c-.14-.32-1.73-3.78-1.87-4.1a1.44,1.44,0,1,0-2.61,1.2c.15.34,1.72,3.75,1.87,4.09a1.43,1.43,0,0,0,2.61-1.19Z" transform="translate(0 -54.95)" style="fill:#407bff"/></g><g id="Character"><path d="M277.71,222.46s-3.81,6.89-10.71,3.69-1.67-12.53-2-16.72-8-14.44,4.35-16.17c0,0,9.93-10.92,23.4-3.2,9.53,5.47,7.89,11,10.47,14.74,1.38,2,9.17,5.1,7.32,11.68-.9,3.22-2.64,4.38-9.91,4.62C294.89,221.29,290.4,230.65,277.71,222.46Z" transform="translate(0 -54.95)" style="fill:#263238"/><path d="M285.79,299.19s-51.15-3.77-54.88,10.79,2.49,59.32,3.38,74.59H246s5-44.51,3.31-61.06c0,0,69,15.42,68.65-18.86Z" transform="translate(0 -54.95)" style="fill:#407bff"/><path d="M285.79,299.19s-51.15-3.77-54.88,10.79,2.49,59.32,3.38,74.59H246s5-44.51,3.31-61.06c0,0,69,15.42,68.65-18.86Z" transform="translate(0 -54.95)" style="fill:#fff;opacity:0.30000000000000004"/><polygon points="243.25 328.38 243.05 341.61 236.11 340.97 235.64 328.97 243.25 328.38" style="fill:#ffb573"/><path d="M232.07,396a3.45,3.45,0,0,1-2.25-1,.72.72,0,0,1,.14-.82,1,1,0,0,1,.66-.35c1.38-.17,3.92,1.84,4,1.93a.17.17,0,0,1,.06.21.2.2,0,0,1-.17.13A14.56,14.56,0,0,1,232.07,396Zm-1-1.74a1.16,1.16,0,0,0-.37,0,.52.52,0,0,0-.41.21c-.18.21-.14.33-.1.4.29.58,2.3.89,3.81.93A8.83,8.83,0,0,0,231,394.25Z" transform="translate(0 -54.95)" style="fill:#407bff"/><path d="M234.51,396.12a.11.11,0,0,1-.08,0c-.89-.56-2.54-2.58-2.24-3.45.06-.21.26-.45.79-.42a1.4,1.4,0,0,1,1,.48c.89,1,.77,3.16.77,3.26a.19.19,0,0,1-.11.16A.2.2,0,0,1,234.51,396.12Zm-1.46-3.52-.11,0c-.34,0-.38.11-.41.15-.13.54.92,2.08,1.82,2.81a4.41,4.41,0,0,0-.69-2.6,1,1,0,0,0-.61-.34Z" transform="translate(0 -54.95)" style="fill:#407bff"/><path d="M235.52,395.13l8.69,1.31a.7.7,0,0,1,.6.65l.51,7.31a1.18,1.18,0,0,1-1.09,1.26,1.07,1.07,0,0,1-.25,0c-3.12-.52-5.88-1.11-9.78-1.7-4.6-.69-3.52,0-8.94-.7-3.27-.44-3.31-4.24-1.9-4.21,6.45.15,7.4-1.66,10.18-3.56A2.85,2.85,0,0,1,235.52,395.13Z" transform="translate(0 -54.95)" style="fill:#263238"/><path d="M235.52,395.13l8.69,1.31a.7.7,0,0,1,.6.65l.51,7.31a1.18,1.18,0,0,1-1.09,1.26,1.07,1.07,0,0,1-.25,0c-3.12-.52-5.88-1.11-9.78-1.7-4.6-.69-3.52,0-8.94-.7-3.27-.44-3.31-4.24-1.9-4.21,6.45.15,7.4-1.66,10.18-3.56A2.85,2.85,0,0,1,235.52,395.13Z" transform="translate(0 -54.95)" style="opacity:0.1"/><polygon points="243.22 330.47 243.14 335.43 235.89 335.42 235.74 331.44 243.22 330.47" style="opacity:0.2"/><polygon points="248.74 326.63 248.33 332.39 232.71 333.09 231.6 327.18 248.74 326.63" style="fill:#407bff"/><path d="M271.49,250.63S266,272.92,265,277c0,0-4.53,0-16.4,5.81,0,0-8.11-3.51-11.75-1.09a7.16,7.16,0,0,0-3.12,4.42,1.37,1.37,0,0,0,1.35,1.65h13.16c4.24,0,5.27-.72,7-1,5.23-.77,16.42,1,19.7-7.63,2.31-6,8.94-22.29,6.46-33.07l-6.83,1.58Z" transform="translate(0 -54.95)" style="fill:#ffb573"/><path d="M278.54,233.31s-7.56,1.32-10,21.73c0,0-2.33.78-1.2,4,0,0,8.57.25,14.07,5.37,0,0,3.26-2.45,1.63-4.32C283.09,260.05,286.16,238.3,278.54,233.31Z" transform="translate(0 -54.95)" style="fill:#407bff"/><path d="M290.82,214.46s1.81,12.68,10.49,12.15c0,0-3.87,18.37-13.72,17.4S280,231.93,280,231.93s4.51,0,3.69-4.23a55.76,55.76,0,0,0-2.19-6.14Z" transform="translate(0 -54.95)" style="fill:#ffb573"/><path d="M282.3,294s1,12.12,5.25,16c0,0,37.67,3,38.37-6.75.35-4.87-4.84-10.67-4.84-10.67Z" transform="translate(0 -54.95)" style="fill:#407bff"/><path d="M282.3,294s1,12.12,5.25,16c0,0,37.67,3,38.37-6.75.35-4.87-4.84-10.67-4.84-10.67Z" transform="translate(0 -54.95)" style="fill:#fff;opacity:0.2"/><path d="M318.59,237.87c-2.27-8.67-9-11.93-19.14-11.44-.28,5.06-3.09,14.35-11.3,14.88-7,.45-5.46-7.46-4.59-11.35-8.17,3.64-10.19,8.08-10.19,8.08-2.41,13.89-1.24,23.55.64,29,1.19,3.41,4,10.07,5.13,13.51a81.32,81.32,0,0,1,3.3,14.55l40-.95C321.48,282.79,321.34,248.37,318.59,237.87Z" transform="translate(0 -54.95)" style="fill:#263238"/><path d="M288.06,277.29c-2,5-4.43,9.72-5,9.5s1-5.35,3-10.3,3.67-7.87,4.23-7.64S290.05,272.34,288.06,277.29Z" transform="translate(0 -54.95)" style="fill:#407bff"/><path d="M286.78,274.72l2,.79c.1-.27.2-.53.29-.79l-1.93-.77C287,274.2,286.89,274.45,286.78,274.72Z" transform="translate(0 -54.95)" style="fill:#407bff"/><path d="M286.78,274.72l2,.79c.1-.27.2-.53.29-.79l-1.93-.77C287,274.2,286.89,274.45,286.78,274.72Z" transform="translate(0 -54.95)" style="fill:#fff;opacity:0.7000000000000001"/><path d="M325.3,299.33s-42.89-1.87-61,8-15.72,19.18-17.05,37.83S240.86,396,240.86,396L252,398.16S267.23,361.93,271,331C271,331,335.69,341.15,325.3,299.33Z" transform="translate(0 -54.95)" style="fill:#407bff"/><path d="M325.3,299.33s-42.89-1.87-61,8-15.72,19.18-17.05,37.83S240.86,396,240.86,396L252,398.16S267.23,361.93,271,331C271,331,335.69,341.15,325.3,299.33Z" transform="translate(0 -54.95)" style="fill:#fff;opacity:0.5"/><polygon points="250.13 341.74 245.65 354.18 239.29 351.31 242.75 339.81 250.13 341.74" style="fill:#ffb573"/><path d="M235.45,405c-.89-.46-1.72-1.1-1.82-1.64a.74.74,0,0,1,.4-.73,1,1,0,0,1,.74-.11c1.36.29,3.11,3,3.19,3.13a.2.2,0,0,1,0,.22.21.21,0,0,1-.21.07A14.31,14.31,0,0,1,235.45,405Zm-.41-2a1.48,1.48,0,0,0-.35-.13.52.52,0,0,0-.45.07c-.24.14-.25.27-.23.35.09.64,1.88,1.59,3.3,2.12A8.84,8.84,0,0,0,235,403Z" transform="translate(0 -54.95)" style="fill:#407bff"/><path d="M237.71,405.93a.1.1,0,0,1-.07,0c-.65-.83-1.56-3.27-1-4,.12-.19.39-.34.88-.15a1.41,1.41,0,0,1,.79.78c.52,1.22-.3,3.25-.33,3.34a.22.22,0,0,1-.16.12A.27.27,0,0,1,237.71,405.93Zm-.23-3.8-.1-.06c-.31-.13-.4,0-.43,0-.3.46.19,2.26.8,3.24a4.47,4.47,0,0,0,.2-2.68,1,1,0,0,0-.47-.52Z" transform="translate(0 -54.95)" style="fill:#407bff"/><path d="M239,405.33l7.79,4.07a.7.7,0,0,1,.35.81l-1.9,7.07a1.18,1.18,0,0,1-1.67.75c-2.78-1.51-5.19-3-8.69-4.79-4.13-2.15-3.34-1.11-8.23-3.58-2.94-1.48-1.74-5.09-.42-4.6,6.05,2.25,7.53.84,10.78-.05A2.82,2.82,0,0,1,239,405.33Z" transform="translate(0 -54.95)" style="fill:#263238"/><polygon points="249.43 343.7 247.74 348.36 240.89 346 242.04 342.18 249.43 343.7" style="opacity:0.2"/><polygon points="255.9 341.87 253.64 347.19 238.64 342.76 239.52 336.81 255.9 341.87" style="fill:#407bff"/><path d="M282.32,223.58a33,33,0,0,1,1.38,4.12,6.4,6.4,0,0,1,.09.7c6.7-2.54,7.28-10.52,7.28-10.52Z" transform="translate(0 -54.95)" style="opacity:0.2"/><path d="M291.77,202.37c1.41,8.75,2.19,12.46-1.18,17.8-5.06,8.13-16.12,8-20.1-.21-3.56-7.34-5.35-20.42,2.38-25.75a12.09,12.09,0,0,1,18.9,8.16Z" transform="translate(0 -54.95)" style="fill:#ffb573"/><path d="M270.59,210h-1.68S270.05,211,270.59,210Z" transform="translate(0 -54.95)" style="fill:#263238"/><path d="M278.82,208.9c.18.65,0,1.27-.43,1.4s-.92-.32-1.11-1,0-1.28.43-1.4S278.61,208.29,278.82,208.9Z" transform="translate(0 -54.95)" style="fill:#263238"/><path d="M271.5,211c.18.66,0,1.28-.43,1.4s-.93-.32-1.11-1,0-1.27.44-1.39S271.31,210.34,271.5,211Z" transform="translate(0 -54.95)" style="fill:#263238"/><path d="M274.09,211.52a18.08,18.08,0,0,1-1.15,4.8,3,3,0,0,0,2.44-.22Z" transform="translate(0 -54.95)" style="fill:#ed893e"/><path d="M278.69,218.57a5.28,5.28,0,0,1-.94.34.18.18,0,0,1-.24-.12h0a.22.22,0,0,1,.15-.24,5.34,5.34,0,0,0,3.62-3.19.19.19,0,0,1,.25-.13.2.2,0,0,1,.13.25A5.53,5.53,0,0,1,278.69,218.57Z" transform="translate(0 -54.95)" style="fill:#263238"/><path d="M279.62,205.14a.4.4,0,0,1-.42.2,4.66,4.66,0,0,0-3.52,1.28.4.4,0,0,1-.57,0,.39.39,0,0,1,0-.55h0a5.38,5.38,0,0,1,4.23-1.5.39.39,0,0,1,.3.46h0A.21.21,0,0,1,279.62,205.14Z" transform="translate(0 -54.95)" style="fill:#263238"/><path d="M267.92,207.66a.42.42,0,0,1-.36-.2.4.4,0,0,1,.13-.54,3.87,3.87,0,0,1,3.64-.38.38.38,0,0,1,.2.5l0,0a.38.38,0,0,1-.51.2h0a3.18,3.18,0,0,0-2.84.34A.48.48,0,0,1,267.92,207.66Z" transform="translate(0 -54.95)" style="fill:#263238"/><path d="M277.94,208h-1.68S277.38,208.93,277.94,208Z" transform="translate(0 -54.95)" style="fill:#263238"/><path d="M270.07,194.08s-4.1-6.74-7.54-1A6.79,6.79,0,0,1,270.07,194.08Z" transform="translate(0 -54.95)" style="fill:#263238"/><path d="M271.07,199.42s-5.29,3.38-4.23,9.68c0,0-6.11-14.38,4.23-14,0,0,9.1-8,16.5-2.46s6.53,15.62,6.53,15.62l-4,1.08s-4.7-4.6-3.76-9.43C286.34,199.89,269.77,206,271.07,199.42Z" transform="translate(0 -54.95)" style="fill:#263238"/><path d="M295.55,208.73A6.48,6.48,0,0,1,293,213c-1.84,1.33-3.56-.14-3.67-2.29-.12-1.93.69-4.95,2.85-5.42a2.92,2.92,0,0,1,3.43,2.29A2.86,2.86,0,0,1,295.55,208.73Z" transform="translate(0 -54.95)" style="fill:#ffb573"/><path d="M291.51,205.47S289.28,192,275,194.69c0,0-7.35,1-7.49,9.85,0,0-2.8-8.61,6.2-11.88C282.33,189.53,292.13,194.67,291.51,205.47Z" transform="translate(0 -54.95)" style="fill:#407bff"/><path d="M235.93,284.9a48.3,48.3,0,0,0,13.36,1.73h31.3c6.89,0,10-1.73,10-1.73s-26.92,1.88-29.43-1A98.32,98.32,0,0,1,235.93,284.9Z" transform="translate(0 -54.95)" style="fill:#263238"/><path d="M235.93,284.9a48.3,48.3,0,0,0,13.36,1.73h31.3c6.89,0,10-1.73,10-1.73s-26.92,1.88-29.43-1A98.32,98.32,0,0,1,235.93,284.9Z" transform="translate(0 -54.95)" style="fill:#fff;opacity:0.9"/><path d="M310.35,250.63s6.14,14.54,5.13,18.66c0,0-5.5,7.75-17.37,13.56,0,0-8.11-3.51-11.75-1.09a7.13,7.13,0,0,0-3.15,4.55,1.27,1.27,0,0,0,1.24,1.52h13.3a23.2,23.2,0,0,0,7-1s17.41-7.14,19.7-15.38c1.25-4.48,1.37-13.57-4.2-25.32l-6.83,1.58Z" transform="translate(0 -54.95)" style="fill:#ffb573"/><path d="M309.26,226.69c-2.53-.25-6.84-.44-6.22,8.07A56.88,56.88,0,0,0,307,251s-.76,3.84,2,3.83a56.45,56.45,0,0,1,14.65-9.06s1-3-1.51-3.26C322.2,242.51,318.29,227.61,309.26,226.69Z" transform="translate(0 -54.95)" style="fill:#407bff"/></g><g id="Chair"><polygon points="296 282.23 296.64 364.44 300.3 364.44 300.94 282.23 296 282.23" style="fill:#407bff"/><polygon points="296 282.23 296.64 364.44 300.3 364.44 300.94 282.23 296 282.23" style="fill:#fff;opacity:0.2"/><polygon points="315.49 275.75 319.85 364.44 323.5 364.44 320.54 275.75 315.49 275.75" style="fill:#407bff"/><polygon points="315.49 275.75 319.85 364.44 323.5 364.44 320.54 275.75 315.49 275.75" style="fill:#fff;opacity:0.2"/><polygon points="276.33 282.23 273.59 364.44 277.24 364.44 281.28 282.23 276.33 282.23" style="fill:#407bff"/><polygon points="276.33 282.23 273.59 364.44 277.24 364.44 281.28 282.23 276.33 282.23" style="fill:#fff;opacity:0.2"/><path d="M277.38,271.06h42.19a6.38,6.38,0,0,1,6.38,6.38v8.11a3.26,3.26,0,0,1-3.26,3.26H274.26a3.26,3.26,0,0,1-3.26-3.26v-8.11A6.38,6.38,0,0,1,277.38,271.06Z" style="fill:#407bff"/><path d="M277,330.68h18.79a1.64,1.64,0,0,1,1.64,1.64v.74a1.64,1.64,0,0,1-1.64,1.64H277a1.42,1.42,0,0,1-1.42-1.42V332.1A1.42,1.42,0,0,1,277,330.68Z" style="fill:#407bff"/><path d="M277,330.68h18.79a1.64,1.64,0,0,1,1.64,1.64v.74a1.64,1.64,0,0,1-1.64,1.64H277a1.42,1.42,0,0,1-1.42-1.42V332.1A1.42,1.42,0,0,1,277,330.68Z" style="fill:#fff;opacity:0.4"/><path d="M300.88,330.68h18.79a1.64,1.64,0,0,1,1.64,1.64v.74a1.64,1.64,0,0,1-1.64,1.64H300.88a1.42,1.42,0,0,1-1.42-1.42V332.1A1.42,1.42,0,0,1,300.88,330.68Z" style="fill:#407bff"/><path d="M300.88,330.68h18.79a1.64,1.64,0,0,1,1.64,1.64v.74a1.64,1.64,0,0,1-1.64,1.64H300.88a1.42,1.42,0,0,1-1.42-1.42V332.1A1.42,1.42,0,0,1,300.88,330.68Z" style="fill:#fff;opacity:0.4"/></g><g id="Desk"><path d="M188.19,285.09v-10.3a1,1,0,0,0,0-2c-3.93,0-7.86,0-11.79-.06v14.3h11.79A1,1,0,0,0,188.19,285.09Z" transform="translate(0 -54.95)" style="fill:#407bff"/><path d="M188.19,285.09v-10.3a1,1,0,0,0,0-2c-3.93,0-7.86,0-11.79-.06v14.3h11.79A1,1,0,0,0,188.19,285.09Z" transform="translate(0 -54.95)" style="fill:#fff;opacity:0.30000000000000004"/><rect x="179.03" y="219.84" width="9.16" height="10.29" style="fill:#407bff"/><rect x="179.03" y="219.84" width="9.16" height="10.29" style="fill:#fff;opacity:0.8"/><path d="M181,286.08H149.21c-2.18,0-4-2.75-4-6.14s1.77-6.14,4-6.14H181Z" transform="translate(0 -54.95)" style="fill:#fff"/><path d="M181,272.82c-10.39,0-20.8-.19-31.19,0-7.11.12-7.5,13.77-.52,14.24,4.87.34,9.88,0,14.75,0h17a1,1,0,0,0,0-2H151.41c-2.28,0-3.91,0-4.8-2.71-.76-2.33-.52-7.08,2.6-7.59a6.37,6.37,0,0,1,1.07,0H181a1,1,0,0,0,0-2Z" transform="translate(0 -54.95)" style="fill:#407bff"/><g style="opacity:0.30000000000000004"><path d="M181,272.82c-10.39,0-20.8-.19-31.19,0-7.11.12-7.5,13.77-.52,14.24,4.87.34,9.88,0,14.75,0h17a1,1,0,0,0,0-2H151.41c-2.28,0-3.91,0-4.8-2.71-.76-2.33-.52-7.08,2.6-7.59a6.37,6.37,0,0,1,1.07,0H181a1,1,0,0,0,0-2Z" transform="translate(0 -54.95)"/></g><path d="M188.19,285.09v-10.3a1,1,0,0,0,0-2c-3.93,0-7.86,0-11.79-.06v14.3h11.79A1,1,0,0,0,188.19,285.09Z" transform="translate(0 -54.95)" style="fill:#407bff"/><path d="M188.19,285.09v-10.3a1,1,0,0,0,0-2c-3.93,0-7.86,0-11.79-.06v14.3h11.79A1,1,0,0,0,188.19,285.09Z" transform="translate(0 -54.95)" style="fill:#fff;opacity:0.30000000000000004"/><rect x="179.03" y="219.84" width="9.16" height="10.29" style="fill:#407bff"/><rect x="179.03" y="219.84" width="9.16" height="10.29" style="fill:#fff;opacity:0.8"/><path d="M181,286.08H149.21c-2.18,0-4-2.75-4-6.14s1.77-6.14,4-6.14H181Z" transform="translate(0 -54.95)" style="fill:#407bff"/><path d="M181,286.08H149.21c-2.18,0-4-2.75-4-6.14s1.77-6.14,4-6.14H181Z" transform="translate(0 -54.95)" style="fill:#fff;opacity:0.9"/><path d="M181,272.82c-10.39,0-20.8-.19-31.19,0-7.11.12-7.5,13.77-.52,14.24,4.87.34,9.88,0,14.75,0h17a1,1,0,0,0,0-2H151.41c-2.28,0-3.91,0-4.8-2.71-.76-2.33-.52-7.08,2.6-7.59a6.37,6.37,0,0,1,1.07,0H181a1,1,0,0,0,0-2Z" transform="translate(0 -54.95)" style="fill:#407bff"/><g style="opacity:0.30000000000000004"><path d="M181,272.82c-10.39,0-20.8-.19-31.19,0-7.11.12-7.5,13.77-.52,14.24,4.87.34,9.88,0,14.75,0h17a1,1,0,0,0,0-2H151.41c-2.28,0-3.91,0-4.8-2.71-.76-2.33-.52-7.08,2.6-7.59a6.37,6.37,0,0,1,1.07,0H181a1,1,0,0,0,0-2Z" transform="translate(0 -54.95)"/></g><path d="M154.05,271.46v-8.22a.79.79,0,0,1,0-1.57c3.14,0,6.27,0,9.41,0V273h-9.41A.79.79,0,0,1,154.05,271.46Z" transform="translate(0 -54.95)" style="fill:#407bff"/><path d="M154.05,271.46v-8.22a.79.79,0,0,1,0-1.57c3.14,0,6.27,0,9.41,0V273h-9.41A.79.79,0,0,1,154.05,271.46Z" transform="translate(0 -54.95)" style="fill:#fff;opacity:0.30000000000000004"/><rect x="154.05" y="208.29" width="7.3" height="8.21" style="fill:#407bff"/><rect x="154.05" y="208.29" width="7.3" height="8.21" style="fill:#fff;opacity:0.8"/><path d="M159.83,272.25h25.32c1.74,0,3.15-2.19,3.15-4.9s-1.41-4.9-3.15-4.9H159.83Z" transform="translate(0 -54.95)" style="fill:#407bff"/><path d="M159.83,272.25h25.32c1.74,0,3.15-2.19,3.15-4.9s-1.41-4.9-3.15-4.9H159.83Z" transform="translate(0 -54.95)" style="fill:#fff;opacity:0.9"/><path d="M159.83,261.67c8.29,0,16.59-.15,24.88,0,5.68.1,6,11,.41,11.37-3.88.26-7.87,0-11.76,0H159.83a.79.79,0,0,1,0-1.58H183.4c1.82,0,3.12,0,3.82-2.16.61-1.86.42-5.65-2.07-6.06a6,6,0,0,0-.85,0H159.83a.79.79,0,0,1,0-1.57Z" transform="translate(0 -54.95)" style="fill:#407bff"/><path d="M282.24,231.84h85.87a0,0,0,0,1,0,0v4.35a7.07,7.07,0,0,1-7.07,7.07H282.24a0,0,0,0,1,0,0V231.84A0,0,0,0,1,282.24,231.84Z" style="fill:#407bff"/><path d="M282.24,231.84h85.87a0,0,0,0,1,0,0v4.35a7.07,7.07,0,0,1-7.07,7.07H282.24a0,0,0,0,1,0,0V231.84A0,0,0,0,1,282.24,231.84Z" style="fill:#fff;opacity:0.5"/><polygon points="210.46 364.44 206.7 364.44 205.75 243.26 211.41 243.26 210.46 364.44" style="fill:#407bff"/><polygon points="210.46 364.44 206.7 364.44 205.75 243.26 211.41 243.26 210.46 364.44" style="fill:#fff;opacity:0.7000000000000001"/><polygon points="359.04 364.44 355.29 364.44 354.33 243.26 360 243.26 359.04 364.44" style="fill:#407bff"/><polygon points="359.04 364.44 355.29 364.44 354.33 243.26 360 243.26 359.04 364.44" style="fill:#fff;opacity:0.7000000000000001"/><path d="M141.38,347.94h65.53a1.67,1.67,0,0,1,1.67,1.67v.79a1.67,1.67,0,0,1-1.67,1.67H141.38a0,0,0,0,1,0,0v-4.12A0,0,0,0,1,141.38,347.94Z" style="fill:#407bff"/><path d="M141.38,347.94h65.53a1.67,1.67,0,0,1,1.67,1.67v.79a1.67,1.67,0,0,1-1.67,1.67H141.38a0,0,0,0,1,0,0v-4.12A0,0,0,0,1,141.38,347.94Z" style="fill:#fff;opacity:0.4"/><path d="M176,348.56H291a0,0,0,0,1,0,0v2.89a0,0,0,0,1,0,0H176a1.36,1.36,0,0,1-1.36-1.36v-.17a1.36,1.36,0,0,1,1.36-1.36Z" style="fill:#407bff"/><path d="M176,348.56H291a0,0,0,0,1,0,0v2.89a0,0,0,0,1,0,0H176a1.36,1.36,0,0,1-1.36-1.36v-.17a1.36,1.36,0,0,1,1.36-1.36Z" style="fill:#fff;opacity:0.1"/><path d="M290,347.94h65.56a1.64,1.64,0,0,1,1.64,1.64v.85a1.64,1.64,0,0,1-1.64,1.64H290a0,0,0,0,1,0,0v-4.12A0,0,0,0,1,290,347.94Z" style="fill:#407bff"/><path d="M290,347.94h65.56a1.64,1.64,0,0,1,1.64,1.64v.85a1.64,1.64,0,0,1-1.64,1.64H290a0,0,0,0,1,0,0v-4.12A0,0,0,0,1,290,347.94Z" style="fill:#fff;opacity:0.4"/><path d="M131.47,231.84H291.35a0,0,0,0,1,0,0v11.42a0,0,0,0,1,0,0H138.52a7.05,7.05,0,0,1-7.05-7.05v-4.37A0,0,0,0,1,131.47,231.84Z" style="fill:#407bff"/><polygon points="143.26 364.44 139.5 364.44 138.55 243.26 144.21 243.26 143.26 364.44" style="fill:#407bff"/><polygon points="143.26 364.44 139.5 364.44 138.55 243.26 144.21 243.26 143.26 364.44" style="fill:#fff;opacity:0.7000000000000001"/><polygon points="291.85 364.44 288.09 364.44 287.14 243.26 292.8 243.26 291.85 364.44" style="fill:#407bff"/><polygon points="291.85 364.44 288.09 364.44 287.14 243.26 292.8 243.26 291.85 364.44" style="fill:#fff;opacity:0.7000000000000001"/></g></svg>